<svg width="28" height="23" viewBox="0 0 26 23" fill="none" xmlns="http://www.w3.org/2000/svg">
<path fill-rule="evenodd" clip-rule="evenodd" d="M15.5921 3.71144C15.5887 3.86903 15.4533 3.994 15.2897 3.99183C15.126 3.98857 14.9962 3.85815 14.9985 3.70056C15.0019 3.5484 14.9105 3.4495 14.7908 3.40386C14.7333 3.38212 14.6723 3.37017 14.6114 3.36908C14.5493 3.36799 14.4873 3.37669 14.4297 3.39625C14.3078 3.43646 14.2108 3.53102 14.2074 3.68099C14.2017 3.91791 14.4297 3.97118 14.6577 4.02443C15.1193 4.13203 15.5808 4.23962 15.5639 4.93846C15.5537 5.37102 15.2829 5.64162 14.9409 5.75467C14.9116 5.76445 14.8811 5.77314 14.8507 5.78075L14.8473 5.91008C14.8439 6.06767 14.7085 6.19373 14.5448 6.19048C14.3812 6.18722 14.2514 6.0568 14.2537 5.8992L14.257 5.7677C14.2266 5.759 14.1984 5.74922 14.169 5.73835C13.8327 5.61011 13.5743 5.32861 13.5845 4.89825C13.5878 4.74066 13.7233 4.61568 13.8869 4.61785C14.0505 4.62111 14.1803 4.75153 14.1781 4.90912C14.1747 5.06128 14.2661 5.16018 14.3857 5.20583C14.4433 5.22756 14.5042 5.23952 14.5652 5.2406C14.6272 5.24169 14.6893 5.233 14.748 5.21343C14.8699 5.17322 14.9669 5.07867 14.9703 4.9287C14.9759 4.68851 14.7468 4.63525 14.5178 4.582C14.0573 4.4744 13.5969 4.36789 13.6138 3.67234C13.624 3.23978 13.8948 2.96917 14.2367 2.85613C14.2661 2.84635 14.2965 2.83765 14.327 2.83005L14.3304 2.70072C14.3338 2.54312 14.4692 2.41815 14.6329 2.42032C14.7965 2.42358 14.9263 2.554 14.924 2.71159L14.9206 2.8431C14.9511 2.8518 14.9793 2.86158 15.0087 2.87245C15.345 3.00069 15.6034 3.28219 15.5932 3.71255L15.5921 3.71144ZM22.6873 9.9401L22.6851 9.94227L22.4255 10.3911L23.9637 11.216L26.3743 7.04707L24.8361 6.22219L22.6862 9.94013L22.6873 9.9401ZM18.0649 3.53977C18.5907 3.51043 19.1437 3.54847 19.6786 3.69519C20.2181 3.84299 20.7395 4.10165 21.1909 4.51031L23.1105 6.25031C23.132 6.26987 23.1557 6.28617 23.1816 6.29813L23.8949 6.68069L22.3138 9.41405L21.5994 9.03148C21.5588 9.00757 21.5103 8.99236 21.4595 8.99018C19.9517 8.91085 18.9428 8.2055 17.8369 7.43167C17.4419 7.15562 17.0345 6.87088 16.5627 6.58611C16.3811 6.47634 16.3179 6.31767 16.3348 6.17203C16.3427 6.1079 16.3641 6.04596 16.3969 5.99161C16.4296 5.93727 16.4736 5.88945 16.5255 5.8525C16.6384 5.77316 16.7997 5.75251 16.9803 5.84598L19.4236 7.1143C19.568 7.18929 19.7486 7.13713 19.8265 6.99801C19.9043 6.8589 19.8502 6.68501 19.7057 6.61003L17.8696 5.65688C18.1483 5.02761 18.2228 4.33639 18.0953 3.6756C18.0862 3.63104 18.0772 3.58648 18.0659 3.54192L18.0649 3.53977ZM11.7237 5.07002C11.7259 5.07545 11.727 5.08089 11.7282 5.08632C11.8681 5.56125 12.1367 6.00686 12.534 6.37312C13.0418 6.84154 13.6783 7.10129 14.3283 7.15563C14.8892 7.20236 15.4614 7.09694 15.9692 6.84046C15.7785 6.622 15.713 6.35899 15.7424 6.10903C15.7593 5.96774 15.8067 5.82971 15.8812 5.70691C15.9557 5.58301 16.055 5.47432 16.1735 5.39065C16.459 5.18958 16.8483 5.12763 17.2603 5.34174L17.3426 5.38412C17.5582 4.87224 17.6135 4.31359 17.5097 3.77889C17.4848 3.65065 17.451 3.5224 17.407 3.3985C17.4013 3.38655 17.3979 3.37459 17.3934 3.36155C17.2433 2.94855 16.9928 2.56274 16.6418 2.23885C16.0482 1.69219 15.2808 1.42916 14.5201 1.44546C13.7606 1.46176 13.0068 1.75738 12.4403 2.32905C11.8726 2.90073 11.5995 3.63975 11.6164 4.37229C11.6221 4.60813 11.6582 4.84397 11.7236 5.07329L11.7237 5.07002ZM17.9239 10.489H1.77894V11.1292H17.9239V10.489ZM14.6488 11.703V12.4279H16.5459V11.703H14.6488ZM15.0991 18.275H16.1035V13.0018H15.0991V18.275ZM3.15344 11.703V12.4279H5.05051V11.703H3.15344ZM3.60373 18.275H4.60814V13.0018H3.60373V18.275ZM8.9011 11.703V12.4279H10.7982V11.703H8.9011ZM9.35139 18.275H10.3558V13.0018H9.35139V18.275ZM14.6534 19.6086H16.5505V18.8489H14.6534V19.6086ZM11.3974 19.6086H14.0574V18.562C14.0574 18.4033 14.1905 18.275 14.3553 18.275H14.5043V13.0018H14.3519C14.1871 13.0018 14.054 12.8736 14.054 12.7149V11.7031H11.394V12.7149C11.394 12.8736 11.2609 13.0018 11.0961 13.0018H10.9528V18.275H11.1018C11.2665 18.275 11.3997 18.4033 11.3997 18.562V19.6086H11.3974ZM8.90448 19.6086H10.8016V18.8489H8.90448V19.6086ZM5.64852 19.6086H8.30847V18.562C8.30847 18.4033 8.44164 18.275 8.60639 18.275H8.75536V13.0018H8.603C8.43824 13.0018 8.30509 12.8736 8.30509 12.7149V11.7031H5.64513V12.7149C5.64513 12.8736 5.51196 13.0018 5.34721 13.0018H5.20389V18.275H5.35285C5.51762 18.275 5.65077 18.4033 5.65077 18.562V19.6086H5.64852ZM3.15558 19.6086H5.05265V18.8489H3.15558V19.6086ZM2.44461 20.8421H17.2545V20.1824L2.44692 20.1813V20.841L2.44461 20.8421ZM1.59257 22.193H18.1064V21.4159L1.59488 21.4149V22.1919L1.59257 22.193ZM17.0661 9.91628V9.23376L14.8034 7.73396C14.6273 7.74374 14.4512 7.74265 14.2752 7.72743C13.4954 7.66222 12.7325 7.3503 12.122 6.78842C11.6706 6.37325 11.358 5.87113 11.183 5.33424L9.84796 4.44956L2.6311 9.23367V9.91619L17.0661 9.91628ZM17.5119 8.8349L15.6317 7.58939C15.9263 7.50244 16.2129 7.37746 16.4804 7.21551C16.8246 7.43396 17.1586 7.66763 17.4848 7.89477C18.6483 8.70881 19.7103 9.45111 21.3567 9.55653L22.0225 9.913L21.8792 10.1619C21.8679 10.1782 21.8578 10.1967 21.8499 10.2151C21.7968 10.326 21.7889 10.4477 21.8217 10.5575C21.8544 10.6673 21.9266 10.7673 22.0338 10.8346C22.0508 10.8466 22.0688 10.8564 22.088 10.8651L23.7481 11.7552C23.8722 11.8215 24.011 11.8334 24.1374 11.7986C24.2627 11.7639 24.3756 11.6834 24.4444 11.5639L26.9351 7.25694C27.0039 7.13739 27.0163 7.00371 26.9802 6.88197C26.9441 6.76134 26.8606 6.65265 26.7365 6.58636L25.055 5.68429C24.9308 5.61799 24.792 5.60604 24.6656 5.64082C24.5403 5.6756 24.4275 5.75602 24.3586 5.87557L24.1826 6.18098L23.4908 5.81038L21.5971 4.09428C21.0701 3.61606 20.4652 3.31611 19.8411 3.14547C19.1854 2.96615 18.5094 2.92919 17.8786 2.97919C17.6946 2.55534 17.4193 2.16081 17.0525 1.82282C16.3415 1.16854 15.4217 0.853368 14.5099 0.872927C13.5969 0.89249 12.6918 1.24789 12.0113 1.93367C11.3319 2.61835 11.0046 3.50412 11.0249 4.38228C11.0261 4.43445 11.0283 4.48662 11.0317 4.5377L10.025 3.8704C9.92573 3.80193 9.78918 3.7965 9.68309 3.86714L2.18945 8.83488C2.1003 8.88487 2.04049 8.97725 2.04049 9.08376V9.91627H1.48299C1.31822 9.91627 1.18507 10.0445 1.18507 10.2032V11.4172C1.18507 11.5758 1.31824 11.7041 1.48299 11.7041H2.5585V12.7159C2.5585 12.8746 2.69167 13.0028 2.85642 13.0028H3.0099V18.276H2.86093C2.69616 18.276 2.56301 18.4043 2.56301 18.5629V19.6095H2.14996C1.98519 19.6095 1.85204 19.7378 1.85204 19.8965V20.8431H1.29792C1.13315 20.8431 1 20.9713 1 21.13V22.4809C1 22.6396 1.13317 22.7678 1.29792 22.7678H18.4078C18.5726 22.7678 18.7057 22.6396 18.7057 22.4809V21.13C18.7057 20.9713 18.5725 20.8431 18.4078 20.8431H17.8537V19.8965C17.8537 19.7378 17.7205 19.6095 17.5557 19.6095H17.1472V18.5629C17.1472 18.4043 17.014 18.276 16.8493 18.276H16.7003V13.0028H16.8436C17.0084 13.0028 17.1416 12.8746 17.1416 12.7159V11.7041H18.2216C18.3863 11.7041 18.5195 11.5758 18.5195 11.4172V10.2032C18.5195 10.0445 18.3863 9.91627 18.2216 9.91627H17.6641V9.08376C17.6641 8.97725 17.6043 8.88487 17.5151 8.83488L17.5119 8.8349Z" fill="#5F4587" stroke="#5F4587" stroke-width="0.2"/>
</svg>
