<svg width="30" height="30" viewBox="0 0 30 30" fill="none" xmlns="http://www.w3.org/2000/svg">
<path opacity="0.967" fill-rule="evenodd" clip-rule="evenodd" d="M14.7656 0C14.9219 0 15.0781 0 15.2344 0C15.2905 0.0856406 15.3588 0.163765 15.4395 0.234375C15.4786 1.32813 15.4786 2.42187 15.4395 3.51562C15.1746 3.87915 14.8817 3.89868 14.5606 3.57422C14.5215 2.46094 14.5215 1.34766 14.5606 0.234375C14.601 0.125963 14.6693 0.047838 14.7656 0Z" fill="#FFBA19"/>
<path opacity="0.957" fill-rule="evenodd" clip-rule="evenodd" d="M7.50012 1.93333C7.84535 1.84973 8.08951 1.96692 8.23254 2.28489C8.68178 3.06614 9.13096 3.84739 9.5802 4.62864C9.70717 5.20481 9.48252 5.42943 8.90637 5.30247C8.77869 5.19418 8.67123 5.06723 8.5841 4.92161C8.16926 4.1504 7.73959 3.38868 7.29504 2.63646C7.2126 2.34677 7.28092 2.11239 7.50012 1.93333Z" fill="#FFBA19"/>
<path opacity="0.961" fill-rule="evenodd" clip-rule="evenodd" d="M22.0312 1.93377C22.5678 1.87454 22.7923 2.10891 22.705 2.63689C22.19 3.54017 21.6529 4.42884 21.0937 5.30291C20.59 5.44278 20.3458 5.25724 20.3613 4.74627C20.8743 3.77812 21.431 2.84062 22.0312 1.93377Z" fill="#FFBA19"/>
<path opacity="0.996" fill-rule="evenodd" clip-rule="evenodd" d="M14.1797 5.21456C18.2307 5.05706 21.3265 6.67818 23.4668 10.0778C25.2007 13.3102 25.2203 16.5524 23.5254 19.8044C21.1672 23.5467 17.7786 25.1581 13.3594 24.6384C10.0434 23.9926 7.63129 22.1664 6.12309 19.1599C4.83008 16.1452 4.92774 13.1765 6.41606 10.2536C8.16274 7.28767 10.7506 5.60797 14.1797 5.21456Z" fill="#FFBA19"/>
<path opacity="0.962" fill-rule="evenodd" clip-rule="evenodd" d="M2.16809 7.26578C2.32555 7.25617 2.4818 7.26595 2.63684 7.29508C3.45715 7.76383 4.27747 8.23258 5.09778 8.70133C5.32208 8.89258 5.39044 9.13674 5.30286 9.43375C5.10366 9.63097 4.87905 9.67984 4.62903 9.58023C3.72575 9.06519 2.83708 8.52812 1.96301 7.9689C1.88055 7.67922 1.94891 7.44484 2.16809 7.26578Z" fill="#FFBA19"/>
<path opacity="0.96" fill-rule="evenodd" clip-rule="evenodd" d="M27.3633 7.26541C27.8677 7.1937 28.0923 7.40856 28.0372 7.90995C27.9912 8.01459 27.9229 8.10248 27.8321 8.17362C26.9412 8.68737 26.0428 9.18541 25.1368 9.66776C24.6938 9.59422 24.5473 9.34034 24.6973 8.90604C24.7192 8.85237 24.7485 8.8035 24.7852 8.75955C25.6579 8.27475 26.5173 7.7767 27.3633 7.26541Z" fill="#FFBA19"/>
<path fill-rule="evenodd" clip-rule="evenodd" d="M14.7655 9.49231C15.0009 9.45715 15.2059 9.51575 15.3808 9.66809C15.9729 10.6311 16.5882 11.5784 17.2265 12.5099C18.3203 12.8029 19.414 13.0958 20.5077 13.3888C20.7968 13.5449 20.8652 13.7695 20.7128 14.0626C20.0097 14.922 19.3066 15.7814 18.6034 16.6407C18.6247 17.7447 18.6735 18.8481 18.7499 19.9513C18.7092 20.4983 18.4358 20.6546 17.9296 20.42C16.9525 20.0162 15.9661 19.6354 14.9706 19.2775C13.9485 19.686 12.9231 20.0864 11.8945 20.4786C11.6057 20.5749 11.4006 20.487 11.2792 20.215C11.316 19.0235 11.355 17.832 11.3964 16.6407C10.6515 15.7593 9.92887 14.8608 9.22844 13.9454C9.16873 13.6255 9.29564 13.4204 9.6093 13.3302C10.664 13.0567 11.7187 12.7833 12.7734 12.5099C13.4453 11.5074 14.1094 10.5015 14.7655 9.49231Z" fill="#101010"/>
<path fill-rule="evenodd" clip-rule="evenodd" d="M14.7655 9.49231C15.0009 9.45715 15.2059 9.51575 15.3808 9.66809C15.9729 10.6311 16.5882 11.5784 17.2265 12.5099C18.3203 12.8029 19.414 13.0958 20.5077 13.3888C20.7968 13.5449 20.8652 13.7695 20.7128 14.0626C20.0097 14.922 19.3066 15.7814 18.6034 16.6407C18.6247 17.7447 18.6735 18.8481 18.7499 19.9513C18.7092 20.4983 18.4358 20.6546 17.9296 20.42C16.9525 20.0162 15.9661 19.6354 14.9706 19.2775C13.9485 19.686 12.9231 20.0864 11.8945 20.4786C11.6057 20.5749 11.4006 20.487 11.2792 20.215C11.316 19.0235 11.355 17.832 11.3964 16.6407C10.6515 15.7593 9.92887 14.8608 9.22844 13.9454C9.16873 13.6255 9.29564 13.4204 9.6093 13.3302C10.664 13.0567 11.7187 12.7833 12.7734 12.5099C13.4453 11.5074 14.1094 10.5015 14.7655 9.49231Z" fill="#FFBA19" fill-opacity="0.2"/>
<path opacity="0.966" fill-rule="evenodd" clip-rule="evenodd" d="M0 15.2344C0 15.0781 0 14.9219 0 14.7656C0.047838 14.6693 0.125963 14.601 0.234375 14.5606C1.32813 14.5215 2.42187 14.5215 3.51563 14.5606C3.7968 14.7405 3.86517 14.9847 3.7207 15.293C3.66782 15.3634 3.59946 15.4122 3.51563 15.4395C2.42187 15.4786 1.32813 15.4786 0.234375 15.4395C0.163765 15.3588 0.0856406 15.2905 0 15.2344Z" fill="#FFBA19"/>
<path opacity="0.966" fill-rule="evenodd" clip-rule="evenodd" d="M30 14.7656C30 14.9219 30 15.0781 30 15.2344C29.9143 15.2905 29.8362 15.3588 29.7656 15.4395C28.6718 15.4786 27.5781 15.4786 26.4843 15.4395C26.1183 15.175 26.0988 14.882 26.4257 14.5606C27.539 14.5215 28.6523 14.5215 29.7656 14.5606C29.874 14.601 29.9521 14.6693 30 14.7656Z" fill="#FFBA19"/>
<path opacity="0.961" fill-rule="evenodd" clip-rule="evenodd" d="M25.0195 20.332C25.2307 20.3496 25.4261 20.4179 25.6054 20.5371C26.3476 20.9668 27.0898 21.3965 27.832 21.8262C28.1445 22.1191 28.1445 22.4121 27.832 22.7051C27.6757 22.7442 27.5195 22.7442 27.3632 22.7051C26.5234 22.2168 25.6835 21.7285 24.8437 21.2402C24.6721 21.0494 24.6233 20.8247 24.6972 20.5664C24.7851 20.451 24.8925 20.3729 25.0195 20.332Z" fill="#FFBA19"/>
<path opacity="0.963" fill-rule="evenodd" clip-rule="evenodd" d="M4.74608 20.332C5.25659 20.3449 5.44214 20.5987 5.30272 21.0937C5.23436 21.1621 5.166 21.2304 5.09764 21.2988C4.27733 21.7676 3.45702 22.2363 2.6367 22.7051C2.09959 22.793 1.87498 22.5684 1.96288 22.0312C2.86992 21.4266 3.79765 20.8602 4.74608 20.332Z" fill="#FFBA19"/>
<path opacity="0.963" fill-rule="evenodd" clip-rule="evenodd" d="M9.08205 24.6094C9.53878 24.6621 9.70484 24.9159 9.58009 25.3711C9.09183 26.2109 8.60351 27.0508 8.11525 27.8906C7.82035 28.1413 7.54689 28.1218 7.29494 27.832C7.25585 27.6758 7.25585 27.5196 7.29494 27.3633C7.7832 26.5039 8.27152 25.6446 8.75978 24.7852C8.8697 24.7202 8.9771 24.6616 9.08205 24.6094Z" fill="#FFBA19"/>
<path opacity="0.958" fill-rule="evenodd" clip-rule="evenodd" d="M20.5664 24.6677C20.8614 24.6092 21.1056 24.6873 21.2988 24.9021C21.7246 25.6984 22.1739 26.4797 22.6465 27.2458C22.8654 27.8071 22.6798 28.0708 22.0898 28.0368C22.006 28.0096 21.9377 27.9607 21.8848 27.8904C21.3366 26.9892 20.8189 26.0712 20.332 25.1365C20.355 24.9489 20.4332 24.7927 20.5664 24.6677Z" fill="#FFBA19"/>
<path opacity="0.964" fill-rule="evenodd" clip-rule="evenodd" d="M15.2344 30C15.0781 30 14.9219 30 14.7656 30C14.6693 29.9521 14.601 29.874 14.5606 29.7656C14.5215 28.6523 14.5215 27.539 14.5606 26.4257C14.882 26.0988 15.175 26.1183 15.4395 26.4843C15.4786 27.5781 15.4786 28.6718 15.4395 29.7656C15.3588 29.8362 15.2905 29.9143 15.2344 30Z" fill="#FFBA19"/>
</svg>
