<svg width="23" height="26" viewBox="0 0 23 26" fill="none" xmlns="http://www.w3.org/2000/svg">
<path d="M13.2922 9.41759C13.2922 8.4672 12.4537 7.69367 11.4236 7.69367C10.3935 7.69367 9.55504 8.46722 9.55504 9.41759C9.55504 10.368 10.3935 11.1415 11.4236 11.1415C12.4537 11.1415 13.2922 10.368 13.2922 9.41759ZM11.4236 10.5633C10.7392 10.5633 10.1818 10.049 10.1818 9.41759C10.1818 8.78618 10.7392 8.27192 11.4236 8.27192C12.108 8.27192 12.6654 8.78618 12.6654 9.41759C12.6654 10.049 12.108 10.5633 11.4236 10.5633ZM21.1206 18.4158L21.9825 11.4365C22.0966 10.5175 21.6462 9.63009 20.8042 9.11799L17.9608 7.45698V5.76016H20.756C21.3581 5.76016 21.8473 5.30775 21.8473 4.75335V1.88376C21.8473 1.32828 21.3569 0.876953 20.756 0.876953L2.09128 0.878038C1.4892 0.878038 1 1.32936 1 1.88484V4.75444C1 5.30992 1.49037 5.76124 2.09128 5.76124H4.88889V15.6557C4.88889 16.1342 5.31104 16.5236 5.82965 16.5236H12.4373C12.6877 17.0151 13.0288 17.4675 13.4451 17.8516L14.0154 18.3777C14.3129 18.6522 14.4787 19.0319 14.4705 19.4182L14.4364 20.7103H14.026C13.6803 20.7103 13.3992 20.9696 13.3992 21.2885V25.1802C13.3992 25.4992 13.6802 25.7585 14.026 25.7585H21.2604C21.6061 25.7585 21.8871 25.4992 21.8871 25.1802V24.5379C21.8871 24.3785 21.7472 24.2483 21.5731 24.2483C21.4003 24.2483 21.2592 24.3774 21.2592 24.5379V25.1802H14.0248V21.2885H21.2592V21.9341C21.2592 22.0935 21.3991 22.2237 21.5731 22.2237C21.746 22.2237 21.8871 22.0946 21.8871 21.9341V21.2885C21.8871 20.9696 21.6061 20.7103 21.2604 20.7103H21.1087V18.5795C21.1087 18.5253 21.1122 18.471 21.1181 18.4168L21.1206 18.4158ZM11.3682 13.6128L11.5576 14.151H8.68235C8.5577 13.5846 8.07321 13.1377 7.45935 13.0226L7.46053 3.60868H8.79641C8.95281 4.81837 10.07 5.76116 11.4223 5.76116C12.7759 5.76116 13.893 4.81946 14.0482 3.60868H15.3877V13.0235C15.1372 13.0712 14.9091 13.1797 14.7127 13.3283L14.394 12.5982C14.0835 11.8865 13.218 11.5068 12.4231 11.7335C12.008 11.8518 11.6693 12.1132 11.4694 12.4702C11.2694 12.826 11.233 13.2329 11.3682 13.6137L11.3682 13.6128ZM13.4156 3.60868C13.2639 4.49831 12.4301 5.18182 11.4235 5.18182C10.4169 5.18182 9.58313 4.49833 9.43143 3.60868H13.4167H13.4156ZM15.7016 13.5726C15.8745 13.5726 16.0156 13.4435 16.0156 13.2829V3.60868H17.3327L17.3315 15.1587C17.3315 15.2792 17.2974 15.6719 16.8658 15.6719C16.1791 15.6719 15.5699 15.2922 15.3136 14.7052L14.9679 13.9132C15.1454 13.7049 15.4124 13.5736 15.7028 13.5736L15.7016 13.5726ZM2.09113 5.18179C1.83478 5.18179 1.62662 4.98976 1.62662 4.75324V1.88365C1.62662 1.64822 1.83477 1.45618 2.09113 1.45618H20.7547C21.011 1.45618 21.2192 1.64821 21.2192 1.88365V4.75324C21.2192 4.98975 21.011 5.18179 20.7547 5.18179H17.9594V3.60757H19.2C19.3729 3.60757 19.514 3.47847 19.514 3.31789C19.514 3.15841 19.3741 3.02821 19.2 3.02821L3.6469 3.02929C3.47403 3.02929 3.33291 3.1584 3.33291 3.31897C3.33291 3.47846 3.47285 3.60866 3.6469 3.60866H4.88988V5.18288H2.09228L2.09113 5.18179ZM5.51671 15.6556V3.60868H6.83378V13.2829C6.83378 13.4424 6.97372 13.5726 7.14777 13.5726C7.66638 13.5726 8.08853 13.962 8.08853 14.4405C8.08853 14.6 8.22847 14.7302 8.40252 14.7302H11.7634L12.1926 15.9453H5.83185C5.65898 15.9453 5.51786 15.8162 5.51786 15.6556H5.51671ZM15.0655 20.7091L15.0996 19.4299C15.1102 18.8853 14.8774 18.3526 14.4611 17.9675L13.8908 17.4413C13.3957 16.9846 13.0206 16.4193 12.8042 15.8053L11.9669 13.4325C11.8846 13.1993 11.9069 12.9519 12.0292 12.7338C12.1515 12.5169 12.3585 12.3574 12.6113 12.2847C13.0958 12.1458 13.625 12.378 13.8143 12.813L14.7328 14.9188C15.0856 15.7271 15.9228 16.249 16.8671 16.249C17.5103 16.249 17.9596 15.7998 17.9596 15.1575V8.1413L20.4643 9.60376C21.1041 9.99215 21.4474 10.6691 21.3604 11.3711L20.4984 18.3504C20.489 18.4263 20.4843 18.5023 20.4843 18.5782V20.709L15.0655 20.7091ZM12.6289 19.7402C12.7677 19.8357 12.7959 20.0169 12.6913 20.1449L11.7505 21.3025C11.6917 21.3752 11.5988 21.4186 11.5 21.4186C11.4012 21.4186 11.3083 21.3763 11.2495 21.3025L10.3088 20.1449C10.2041 20.0169 10.2323 19.8357 10.3711 19.7402C10.5087 19.6437 10.7063 19.6697 10.8097 19.7977L11.186 20.261V18.0141C11.186 17.8547 11.326 17.7245 11.5 17.7245C11.6729 17.7245 11.814 17.8536 11.814 18.0141V20.261L12.1903 19.7977C12.295 19.6697 12.4902 19.6448 12.6289 19.7402ZM8.23912 19.7402C8.37788 19.8357 8.4061 20.0169 8.30144 20.1449L7.36068 21.3025C7.30188 21.3752 7.20898 21.4186 7.1102 21.4186C7.01142 21.4186 6.91852 21.3763 6.85972 21.3025L5.91896 20.1449C5.8143 20.0169 5.84252 19.8357 5.98129 19.7402C6.11887 19.6437 6.31644 19.6697 6.41991 19.7977L6.79621 20.261V18.0141C6.79621 17.8547 6.93615 17.7245 7.1102 17.7245C7.28307 17.7245 7.42419 17.8536 7.42419 18.0141V20.261L7.80049 19.7977C7.90398 19.6697 8.10036 19.6448 8.23912 19.7402ZM21.8897 22.9745V23.4953C21.8897 23.6547 21.7497 23.7849 21.5757 23.7849C21.4028 23.7849 21.2617 23.6558 21.2617 23.4953V22.9745C21.2617 22.815 21.4016 22.6848 21.5757 22.6848C21.7485 22.6848 21.8897 22.8139 21.8897 22.9745Z" fill="#5F4587" stroke="#5F4587" stroke-width="0.5"/>
</svg>
